<?xml version="1.0" encoding="UTF-8"?>
<svg width="130px" height="142px" viewBox="0 0 130 142" version="1.1" xmlns="http://www.w3.org/2000/svg" xmlns:xlink="http://www.w3.org/1999/xlink">
    <!-- Generator: Sketch 51.2 (57519) - http://www.bohemiancoding.com/sketch -->
    <title>prem-cup</title>
    <desc>Created with Sketch.</desc>
    <defs>
        <polygon id="path-1" points="0 0.0553928571 129.769526 0.0553928571 129.769526 141 0 141"></polygon>
    </defs>
    <g id="prem-cup" stroke="none" stroke-width="1" fill="none" fill-rule="evenodd">
        <g id="Page-1" transform="translate(0.000000, 1.000000)">
            <g id="Group-3">
                <mask id="mask-2" fill="white">
                    <use xlink:href="#path-1"></use>
                </mask>
                <g id="Clip-2"></g>
                <path d="M117.37622,27.1928571 C111.337519,41.2928571 95.2349918,56.4 97.2485663,43.3071429 C99.2611294,30.2142857 99.0972926,21.15 102.279974,21.15 C103.286256,21.15 104.292537,21.15 105.29983,19.1357143 C105.29983,19.1357143 109.324956,5.03571429 114.357375,7.05 C119.388783,9.06428571 121.999047,16.3972929 117.37622,27.1928571 M12.4539225,27.1928571 C7.80884598,16.3972929 10.431246,9.06428571 15.4879373,7.05 C20.5446285,5.03571429 24.5899815,19.1357143 24.5899815,19.1357143 C25.6013197,21.15 26.6126579,21.15 27.6239962,21.15 C30.8228591,21.15 30.6580109,30.2142857 32.6806874,43.3071429 C34.7033639,56.4 18.521952,41.2928571 12.4539225,27.1928571 M128.446328,9.06428571 C120.395065,-4.02857143 113.351094,1.00714286 113.351094,1.00714286 C113.351094,1.00714286 102.279974,5.03571429 96.2422847,3.02142857 C90.203584,1.00714286 65.0435112,1.00714286 65.0435112,1.00714286 C65.0435112,1.00714286 39.7600551,1.00714286 33.6920257,3.02142857 C27.6239962,5.03571429 16.4992755,1.00714286 16.4992755,1.00714286 C16.4992755,1.00714286 9.4199078,-4.02857143 1.32920185,9.06428571 C-6.7615041,22.1571429 24.5899815,52.3714286 27.6239962,54.3857143 C30.6580109,56.4 36.7260404,58.4142857 37.7373786,67.4785714 C38.7487169,76.5428571 38.7487169,81.5785714 45.8280846,84.6 C52.9074523,87.6214286 53.9187905,100.714286 53.9187905,104.742857 C53.9187905,108.771429 51.896114,119.85 44.8167463,126.9 C38.6202769,133.070764 33.974189,136.154636 36.9798863,137.5032 C38.8114198,139.476193 50.6734061,141 65.0435112,141 C79.7271312,141 91.7994758,139.409721 93.220406,137.374286 C95.6739126,135.962271 91.1491853,132.881421 85.1721763,126.9 C78.1271941,119.85 76.114631,108.771429 76.114631,104.742857 C76.114631,100.714286 77.1209125,87.6214286 84.1658947,84.6 C91.2098656,81.5785714 91.2098656,76.5428571 92.2161471,67.4785714 C93.2224287,58.4142857 99.2611294,56.4 102.279974,54.3857143 C105.29983,52.3714286 136.497592,22.1571429 128.446328,9.06428571" id="Fill-1" fill="#FFFFFF" mask="url(#mask-2)"></path>
            </g>
        </g>
    </g>
</svg>